<?xml version="1.0" standalone="no"?>
<!DOCTYPE svg PUBLIC "-//W3C//DTD SVG 20010904//EN"
 "http://www.w3.org/TR/2001/REC-SVG-20010904/DTD/svg10.dtd">
<svg version="1.0" xmlns="http://www.w3.org/2000/svg"
 width="246.000000pt" height="345.000000pt" viewBox="0 0 246.000000 345.000000"
 preserveAspectRatio="xMidYMid meet">

<g transform="translate(0.000000,345.000000) scale(0.100000,-0.100000)"
fill="#000000" stroke="none">
<path d="M0 3385 l0 -64 43 3 c27 3 48 -1 58 -10 26 -24 87 -30 95 -10 7 17
24 22 24 6 0 -5 -12 -16 -27 -23 -31 -17 -89 -5 -110 22 -8 11 -12 12 -13 3 0
-9 -5 -10 -16 -4 -20 11 -54 4 -54 -10 0 -6 10 -8 23 -5 12 4 29 2 37 -3 12
-8 11 -10 -5 -8 -52 4 -53 3 -53 -87 -1 -74 2 -86 20 -99 20 -14 58 -69 58
-84 0 -4 -18 -16 -40 -26 l-40 -19 0 -944 0 -944 23 5 22 6 -22 -11 c-14 -8
-23 -21 -23 -36 0 -13 4 -22 8 -19 10 6 22 -2 42 -28 14 -18 14 -19 -9 -7 -17
9 -26 10 -34 2 -8 -8 -4 -11 13 -11 23 0 23 0 4 -15 -18 -14 -17 -14 13 -9 37
7 57 -5 79 -47 13 -25 12 -31 -8 -65 -12 -21 -17 -34 -10 -30 7 4 12 3 12 -2
0 -20 -64 -30 -74 -13 -4 5 4 7 16 5 18 -3 17 -2 -4 6 -14 6 -29 18 -32 26 -4
12 -2 12 15 4 31 -17 52 -8 53 22 1 23 -2 27 -18 22 -15 -5 -18 -2 -14 14 4
15 2 19 -8 15 -10 -4 -13 0 -8 13 5 18 5 18 -9 1 -11 -14 -16 -15 -21 -5 -3 7
-4 -23 -3 -67 1 -61 6 -84 19 -98 9 -9 22 -17 27 -17 6 0 14 -6 18 -14 4 -8
19 -16 33 -18 24 -4 24 -5 -10 -20 -24 -11 -41 -13 -58 -7 -14 5 -27 7 -30 4
-4 -3 4 -8 16 -12 12 -3 22 -10 22 -15 0 -5 -9 -6 -20 -3 -11 4 -20 2 -20 -4
0 -6 11 -11 25 -11 14 0 25 5 25 10 0 6 6 10 13 10 7 0 28 11 47 25 48 35 62
31 20 -5 -19 -17 -56 -38 -82 -48 l-48 -17 0 -148 0 -148 30 17 c16 10 31 27
33 38 4 20 4 20 6 -1 1 -14 -11 -31 -34 -49 -20 -15 -33 -29 -31 -32 3 -3 12
1 21 8 9 7 18 10 22 7 8 -9 -17 -37 -33 -37 -20 0 -18 -8 11 -42 25 -30 36
-98 15 -98 -5 0 -10 12 -10 28 0 15 -7 35 -14 45 -12 15 -14 11 -14 -35 -1
-37 1 -49 8 -38 5 8 10 10 10 4 0 -6 -3 -14 -7 -18 -4 -3 -7 -15 -8 -26 -1
-15 2 -17 17 -9 10 5 18 15 18 22 0 7 7 21 15 31 14 19 15 18 15 -13 0 -24 -9
-42 -34 -67 -19 -19 -29 -34 -22 -34 6 0 5 -4 -3 -9 -9 -6 20 -9 77 -10 91 -1
91 -1 109 29 22 39 30 38 26 -2 l-3 -33 11 34 c11 36 30 56 61 64 16 5 16 2
-2 -20 -11 -14 -20 -32 -20 -40 0 -8 -4 -12 -9 -9 -5 3 -11 -1 -15 -9 -3 -10
1 -15 12 -15 11 0 21 12 27 32 10 34 50 62 69 50 6 -4 1 -8 -11 -10 -25 -4
-38 -17 -47 -49 -6 -19 -3 -23 13 -23 11 0 23 5 26 10 3 6 11 10 16 10 6 0 8
-4 4 -9 -3 -6 19 -9 55 -8 33 1 60 4 60 8 0 8 -41 62 -55 71 -16 12 1 9 30 -4
16 -7 25 -19 25 -33 0 -13 6 -28 14 -34 11 -9 12 -6 8 16 -2 16 -10 35 -16 43
-34 45 -36 58 -15 84 11 14 16 26 10 26 -14 0 -43 -58 -36 -70 3 -6 -1 -10 -9
-10 -8 0 -13 6 -11 13 4 8 -7 12 -37 12 -37 0 -44 4 -57 30 -8 17 -21 36 -30
43 -13 10 -11 10 11 1 15 -7 25 -15 23 -19 -3 -4 2 -13 10 -20 13 -11 14 -10
9 3 -5 14 -1 15 25 7 34 -10 65 -4 101 19 13 9 21 11 17 4 -4 -6 -2 -13 5 -15
10 -4 9 -13 -1 -45 -11 -34 -11 -44 3 -71 9 -17 16 -37 16 -44 0 -21 48 -21
53 0 4 16 5 16 6 0 1 -13 8 -17 26 -16 23 2 25 6 20 38 -4 26 -3 30 4 15 18
-41 45 -56 89 -49 45 7 69 27 82 70 l8 29 1 -31 c1 -17 -6 -37 -14 -44 -8 -7
-15 -18 -15 -24 0 -6 12 2 25 17 29 33 32 70 8 95 -18 18 -25 35 -26 59 0 7
-3 12 -6 11 -19 -2 -31 3 -31 13 0 14 42 1 58 -19 6 -9 9 -25 6 -36 -4 -12 -3
-18 1 -14 14 13 34 -26 28 -53 -3 -19 0 -28 12 -33 9 -3 15 -12 12 -20 -3 -8
2 -17 11 -21 8 -3 182 -5 386 -4 329 1 368 2 351 16 -20 14 -20 14 -1 29 27
19 29 18 49 -16 10 -17 23 -30 28 -30 6 0 1 13 -10 29 -12 16 -21 40 -21 53 0
18 5 14 20 -19 18 -42 26 -47 90 -57 33 -5 62 16 77 57 14 38 17 15 4 -31 -6
-20 -6 -32 0 -32 5 0 9 6 9 13 0 8 3 9 8 1 4 -6 26 -11 49 -11 31 0 41 4 41
16 0 9 6 31 13 48 11 27 11 39 0 70 -10 27 -11 38 -2 41 6 2 9 8 6 13 -4 5 1
6 9 3 9 -3 14 -10 11 -14 -3 -4 2 -13 10 -20 19 -16 19 -28 -3 -70 -24 -44
-37 -94 -22 -85 5 3 10 17 10 29 0 27 14 40 50 50 18 5 21 5 11 -3 -8 -5 -16
-15 -17 -23 -2 -7 -6 -23 -10 -35 -8 -29 8 -30 47 -2 31 22 71 22 75 1 1 -7 0
-8 -3 -2 -7 15 -49 12 -63 -5 -10 -13 -9 -15 9 -15 12 0 19 5 16 10 -3 6 1 10
9 10 9 0 16 -4 16 -10 0 -5 9 -10 20 -10 11 0 20 7 20 16 0 27 -20 54 -40 54
-11 0 -20 5 -20 10 0 32 70 -24 73 -57 1 -19 7 -23 35 -23 33 0 34 1 28 31 -5
27 -4 30 9 19 8 -6 17 -20 20 -31 6 -17 16 -19 102 -17 59 1 87 5 74 10 -28
10 -27 17 2 11 18 -3 16 -1 -8 13 -16 10 -39 19 -49 21 -19 3 -19 3 0 -19 l19
-23 -21 18 c-14 12 -20 25 -17 38 5 18 6 19 19 2 7 -10 14 -13 14 -6 0 6 -4
15 -10 18 -13 8 -13 55 -1 55 5 0 12 -8 15 -18 7 -22 56 -70 56 -56 0 6 -6 16
-12 23 -10 11 -10 13 0 7 6 -4 12 -2 12 3 0 6 -4 11 -9 11 -5 0 -12 7 -15 16
-6 14 -4 15 9 4 14 -12 16 -8 14 33 -2 26 -6 47 -9 47 -9 0 -30 -47 -30 -66 0
-9 -5 -12 -11 -8 -10 6 -8 40 6 75 5 13 1 15 -21 11 -23 -4 -26 -2 -21 12 4
10 7 20 7 22 0 2 11 -3 25 -12 20 -13 28 -14 40 -4 24 20 18 33 -13 27 -29 -5
-106 34 -126 65 -13 22 23 101 54 118 25 13 25 14 -2 -41 -12 -24 -21 -52 -20
-62 1 -26 21 -47 37 -41 7 3 16 -3 20 -15 3 -12 11 -21 16 -21 14 0 -8 38 -31
53 -14 8 -20 22 -19 47 l1 35 8 -33 c7 -32 23 -50 63 -73 35 -20 28 -1 -7 20
-32 20 -55 56 -43 68 3 2 8 -5 12 -16 7 -22 65 -59 65 -42 0 5 -6 12 -12 14
-10 4 -10 6 -1 6 9 1 12 39 12 139 l1 137 -31 2 c-32 2 -124 61 -120 76 2 5
-10 22 -25 38 -19 20 -23 29 -13 29 9 0 28 -13 43 -29 23 -24 25 -30 11 -33
-11 -2 3 -14 40 -35 57 -33 95 -42 95 -23 0 6 -12 8 -27 5 -27 -6 -27 -6 -9 9
11 9 23 16 28 16 4 0 8 5 8 10 0 7 -11 5 -27 -3 -32 -15 -67 -12 -83 8 -10 12
-4 15 39 14 29 -1 55 2 59 6 4 4 -4 6 -18 5 -14 -1 -32 -2 -40 -1 -26 2 11 21
41 21 22 0 26 4 27 33 1 26 -1 29 -9 15 -6 -11 -23 -19 -42 -19 -30 -2 -30 -2
8 -9 34 -6 36 -7 11 -9 -16 0 -37 -8 -46 -16 -20 -18 -40 -13 -58 15 -11 18
-10 19 21 14 29 -4 30 -4 8 6 -32 14 -51 41 -45 62 3 9 0 19 -6 23 -6 4 -3 20
10 46 25 49 36 52 13 3 -14 -28 -15 -39 -5 -54 7 -11 12 -25 12 -31 0 -38 84
-52 112 -19 17 19 21 111 5 126 -7 8 -9 -1 -9 -56 0 -19 -3 -39 -6 -45 -4 -5
-7 -14 -7 -20 0 -14 -41 -18 -61 -7 -9 5 -18 24 -19 41 -3 31 -2 31 12 12 15
-22 57 -28 68 -11 4 7 -3 9 -22 5 l-28 -7 24 14 c27 14 38 72 19 96 -9 10 -6
11 18 2 24 -8 26 -8 12 2 -9 7 -25 18 -35 24 -17 11 -17 12 1 33 11 12 26 19
33 17 11 -4 13 171 13 985 0 668 -3 988 -10 984 -6 -4 -8 -11 -5 -16 3 -5 -4
-4 -17 1 -13 6 -31 13 -40 16 -21 8 -22 22 -3 47 7 11 11 25 9 31 -3 7 3 19
13 27 16 13 17 12 4 -4 -21 -27 -8 -29 22 -3 28 24 35 73 12 88 -6 5 -6 8 3 8
8 0 12 15 10 45 -1 47 -7 51 -63 47 -15 -2 -17 0 -6 7 11 7 11 9 0 13 -9 3 -6
9 11 18 22 12 24 12 12 -2 -10 -13 -9 -17 10 -22 13 -3 26 -6 31 -6 4 0 7 36
7 80 l0 80 -39 0 c-35 0 -38 -2 -34 -24 3 -13 0 -26 -5 -30 -6 -3 -8 2 -5 12
2 10 -3 24 -11 31 -17 14 -22 1 -6 -15 5 -5 5 -15 1 -22 -6 -10 -10 -4 -14 17
-4 17 -11 31 -17 31 -7 0 -7 -6 0 -20 6 -12 10 -33 8 -48 -2 -21 -9 -28 -32
-30 -16 -2 -34 2 -40 8 -8 8 -6 9 8 4 15 -6 17 -4 11 7 -8 12 -6 12 8 1 9 -8
21 -11 27 -7 14 8 13 48 -2 63 -14 14 -42 16 -34 3 3 -5 -1 -11 -8 -14 -11 -4
-14 0 -11 16 4 21 4 21 -10 3 -8 -11 -15 -28 -15 -39 0 -10 -4 -16 -9 -13 -5
3 -11 -2 -13 -12 -6 -24 2 -53 12 -47 5 3 14 -4 20 -15 7 -13 21 -20 39 -20
37 0 82 35 74 57 -6 15 20 43 39 43 14 0 9 -26 -9 -48 -10 -11 -22 -28 -28
-36 -16 -25 -68 -36 -96 -20 -13 7 -34 18 -46 23 -13 6 -24 14 -24 18 -5 27
-9 72 -9 94 0 22 -4 25 -42 28 -25 1 -44 -3 -49 -11 -7 -10 -9 -10 -9 0 0 6
-4 12 -8 12 -5 0 -7 -12 -4 -28 4 -31 -30 -82 -55 -82 -12 0 -10 4 5 18 28 23
40 89 17 89 -9 0 -14 -6 -11 -14 3 -7 2 -13 -2 -13 -4 0 -8 -12 -7 -27 0 -22
-5 -29 -25 -31 l-25 -3 22 15 c30 22 26 53 -8 58 -22 4 -26 1 -24 -14 2 -10 0
-16 -6 -13 -5 4 -13 -4 -18 -17 -8 -20 -10 -21 -16 -5 -4 9 -2 23 3 30 6 7 8
18 4 24 -5 8 -14 2 -27 -17 -11 -17 -23 -30 -27 -30 -13 0 -9 35 5 50 10 12 9
12 -5 1 -15 -11 -18 -11 -18 0 -1 25 -29 -35 -30 -62 0 -40 22 -51 111 -54 45
-2 86 -8 90 -14 5 -6 6 -9 2 -6 -3 3 -15 -2 -25 -12 -21 -19 -80 -22 -86 -5
-2 7 -19 12 -37 12 -47 0 -70 32 -70 98 0 48 -2 52 -23 52 -21 0 -22 -1 -8
-16 23 -22 20 -37 -10 -51 -22 -10 -24 -9 -20 5 7 21 -2 35 -30 50 -16 9 -26
7 -44 -5 -22 -15 -23 -15 -17 0 6 16 -26 17 -440 17 -395 0 -444 -2 -433 -15
16 -19 6 -19 -24 0 -21 14 -25 14 -45 -2 -12 -10 -24 -30 -25 -44 -3 -23 1
-26 27 -27 46 -1 45 -12 -1 -12 -22 0 -44 5 -47 10 -3 6 -2 10 2 10 5 0 9 9 9
19 0 14 -4 17 -12 10 -21 -17 -28 10 -8 32 16 18 16 19 -4 19 -20 0 -22 -5
-22 -55 0 -65 -22 -95 -70 -95 -16 0 -30 -4 -30 -9 0 -19 -51 -21 -91 -3 -53
25 -39 33 61 36 93 3 126 22 115 66 -4 14 -11 29 -16 34 -5 6 -4 -6 1 -25 8
-28 7 -36 -7 -46 -27 -21 -32 -15 -22 22 11 39 4 75 -14 75 -8 0 -8 -3 1 -12
7 -7 12 -21 12 -33 -1 -17 -5 -16 -29 13 l-29 33 5 -40 c5 -43 -13 -60 -19
-18 -2 14 -9 21 -20 21 -10 -1 -15 2 -12 7 3 5 -7 9 -23 8 -15 0 -23 -3 -17
-5 7 -3 10 -14 7 -24 -3 -12 0 -20 6 -20 7 0 9 5 5 12 -4 6 -3 8 4 5 15 -10 7
-43 -9 -39 -21 5 -29 24 -25 57 2 24 -1 31 -16 32 -21 2 -21 0 -8 -49 6 -21
18 -42 28 -47 16 -10 16 -10 0 -11 -24 0 -51 44 -50 81 1 29 -12 40 -21 17 -4
-10 -6 -10 -6 0 -1 7 -17 12 -44 12 l-43 0 2 -51 c1 -52 -25 -105 -40 -81 -4
7 -2 12 5 12 7 0 9 10 7 24 -3 13 1 31 8 40 13 18 8 56 -8 56 -5 0 -5 -7 1
-18 6 -11 6 -24 0 -35 -14 -24 -29 -21 -29 7 0 32 -16 41 -75 41 -47 0 -50 -1
-56 -30 -5 -24 -7 -27 -13 -12 -5 9 -6 24 -2 32 4 12 -3 15 -29 15 l-35 0 0
-65z m42 24 c-5 -13 -6 -33 -1 -44 7 -19 8 -19 8 2 1 16 6 20 21 16 11 -3 20
-9 20 -14 0 -5 1 -12 3 -16 1 -5 -11 -8 -26 -9 -36 -1 -52 33 -35 71 14 31 22
26 10 -6z m60 4 c-3 -16 -7 -22 -10 -15 -4 13 4 42 11 42 2 0 2 -12 -1 -27z
m85 12 c0 -8 -4 -12 -9 -9 -5 3 -6 10 -3 15 9 13 12 11 12 -6z m156 2 c4 -10
-2 -13 -19 -9 -13 2 -21 8 -18 13 8 14 31 11 37 -4z m1806 -1 c9 -11 6 -12
-14 -8 -14 2 -22 8 -19 13 8 13 20 11 33 -5z m-1376 -10 c6 -14 -10 -36 -27
-36 -6 0 -5 5 2 12 17 17 15 31 -4 24 -8 -3 -12 -2 -9 4 9 15 32 12 38 -4z
m942 4 c4 -6 3 -10 -2 -9 -22 4 -24 -3 -7 -23 19 -22 19 -22 0 -8 -15 12 -20
12 -23 2 -5 -13 -23 -7 -23 9 0 6 4 8 9 5 5 -3 11 3 14 14 6 22 22 26 32 10z
m159 -79 c-2 -2 -10 2 -19 9 -16 13 -19 38 -8 67 5 14 10 7 18 -27 7 -25 10
-47 9 -49z m556 44 c0 -42 -15 -41 -16 2 -1 27 2 39 7 31 5 -7 9 -22 9 -33z
m-2269 12 c-13 -13 -26 -3 -16 12 3 6 11 8 17 5 6 -4 6 -10 -1 -17z m2153 8
c3 -9 0 -15 -9 -15 -16 0 -27 14 -18 24 10 10 21 7 27 -9z m-304 -10 c0 -2 -6
-5 -13 -8 -8 -3 -14 1 -14 8 0 7 6 11 14 8 7 -3 13 -6 13 -8z m152 -26 l16
-34 -30 -3 c-16 -2 -36 2 -44 9 -12 10 -13 9 -8 -7 5 -14 4 -16 -5 -8 -9 8 -9
18 -1 40 21 54 46 55 72 3z m-2001 -9 c13 0 18 4 13 12 -4 7 -3 8 5 4 16 -10
4 -26 -19 -26 -33 0 -50 12 -50 33 0 21 0 21 16 -1 8 -12 24 -22 35 -22z m145
25 c-3 -9 3 -19 15 -25 15 -8 21 -7 25 4 3 8 2 21 -2 28 -5 9 -4 10 4 3 18
-17 25 -62 11 -70 -7 -5 -10 -4 -6 3 5 7 -6 8 -33 5 -25 -4 -40 -2 -40 5 0 17
19 62 26 62 3 0 4 -7 0 -15z m264 -21 c0 -8 -10 -14 -24 -14 -22 0 -23 2 -13
24 9 18 15 22 24 14 7 -6 13 -17 13 -24z m1348 -12 c-5 -2 -15 -1 -24 2 -12 5
-13 10 -3 27 l11 21 12 -23 c7 -13 8 -26 4 -27z m-1418 28 c0 -5 -4 -10 -10
-10 -5 0 -10 5 -10 10 0 6 5 10 10 10 6 0 10 -4 10 -10z m290 0 c0 -5 -5 -10
-11 -10 -5 0 -7 5 -4 10 3 6 8 10 11 10 2 0 4 -4 4 -10z m1180 0 c0 -5 -2 -10
-4 -10 -3 0 -8 5 -11 10 -3 6 -1 10 4 10 6 0 11 -4 11 -10z m-1746 -33 c-3 -7
-16 -20 -29 -29 -27 -20 -80 -15 -89 8 -4 11 2 13 32 8 30 -5 41 -2 56 15 19
21 39 20 30 -2z m1549 11 c-2 -5 -23 -8 -46 -7 -35 1 -38 2 -17 8 31 10 70 8
63 -1z m547 -21 c24 9 30 9 30 -3 0 -15 -30 -34 -56 -34 -21 0 -64 38 -64 57
0 10 9 7 30 -9 26 -19 35 -21 60 -11z m-1819 0 c-7 -7 -14 -8 -21 -1 -6 6 -2
10 12 11 16 2 18 -1 9 -10z m1469 -1 c-7 -7 -14 -6 -21 1 -9 9 -7 12 9 10 14
-1 18 -5 12 -11z m-1892 -79 c6 -6 13 -24 17 -38 5 -21 1 -29 -22 -44 l-28
-18 23 25 c28 30 29 48 1 23 -20 -19 -20 -19 -10 8 7 17 7 28 1 32 -12 8 -13
25 -1 25 5 0 13 -6 19 -13z m2316 -11 c-3 -13 -1 -32 4 -43 17 -33 2 -47 -24
-22 -13 12 -24 27 -24 33 0 6 5 3 11 -6 5 -10 15 -18 21 -18 9 0 9 3 0 12 -13
13 -16 50 -5 61 14 15 23 6 17 -17z m-2348 -32 c-4 -9 -9 -15 -11 -12 -3 3 -3
13 1 22 4 9 9 15 11 12 3 -3 3 -13 -1 -22z m2378 -14 c-6 -5 -24 21 -24 34 0
6 6 1 14 -10 8 -10 12 -21 10 -24z m-2177 -17 c10 -10 13 -14 6 -9 -7 5 -28
12 -46 16 -29 7 -30 8 -6 9 15 1 35 -7 46 -16z m990 -45 c-2 -13 -4 -3 -4 22
0 25 2 35 4 23 2 -13 2 -33 0 -45z m138 42 c-4 -13 0 -32 11 -48 14 -22 14
-24 2 -14 -13 10 -17 10 -21 0 -3 -7 -6 8 -6 35 -1 27 3 47 10 47 6 0 8 -9 4
-20z m840 0 c-10 -11 -23 -20 -29 -20 -6 1 0 10 13 20 30 26 39 26 16 0z m68
13 c-7 -2 -21 -2 -30 0 -10 3 -4 5 12 5 17 0 24 -2 18 -5z m-1073 -61 c0 -6
-11 -1 -25 12 -14 13 -25 28 -25 34 0 6 11 1 25 -12 14 -13 25 -28 25 -34z
m-1098 36 c-23 -23 -12 -28 21 -8 33 21 73 26 94 12 8 -5 0 -8 -20 -8 -17 0
-47 -8 -66 -17 -18 -9 -37 -14 -42 -11 -5 3 -9 -1 -10 -8 0 -11 -2 -11 -6 0
-5 12 23 52 36 52 3 0 0 -5 -7 -12z m2222 -18 l21 -22 -25 13 c-14 7 -43 19
-65 26 l-40 13 44 -4 c28 -3 52 -13 65 -26z m30 3 c10 -25 3 -23 -17 3 -13 18
-14 22 -3 18 8 -3 17 -13 20 -21z m-1464 -45 c5 -16 6 -28 2 -28 -10 0 -31 78
-23 86 3 3 7 -2 9 -13 2 -10 7 -30 12 -45z m374 47 c3 -8 1 -15 -3 -15 -5 0
-11 7 -15 15 -3 8 -1 15 3 15 5 0 11 -7 15 -15z m58 -20 c3 -13 1 -22 -3 -19
-5 3 -9 14 -9 25 0 13 -4 18 -12 13 -7 -4 -8 -3 -4 5 10 16 23 6 28 -24z
m-263 -8 c0 -21 -1 -21 -9 -2 -12 28 -12 37 0 30 6 -3 10 -16 9 -28z m34 3 c3
-11 2 -20 -3 -20 -4 0 -10 11 -12 25 -6 29 7 25 15 -5z m-846 8 c38 -17 60
-38 39 -38 -8 0 -18 4 -21 10 -16 25 -42 28 -93 10 -54 -19 -68 -12 -30 14 27
19 67 20 105 4z m600 -28 c5 -22 7 -40 3 -40 -4 0 -12 18 -18 40 -5 22 -7 40
-3 40 4 0 12 -18 18 -40z m142 7 c0 -21 -1 -21 -9 -2 -12 28 -12 37 0 30 6 -3
10 -16 9 -28z m41 8 c0 -14 -2 -25 -4 -25 -2 0 -6 11 -8 25 -3 14 -1 25 3 25
5 0 9 -11 9 -25z m397 11 c-3 -7 0 -19 6 -25 9 -9 8 -11 -5 -6 -18 7 -24 26
-11 38 11 11 15 8 10 -7z m865 0 c16 -12 38 -56 38 -76 0 -4 -14 -13 -30 -19
-18 -6 -28 -6 -25 -1 4 6 13 10 21 10 9 0 14 10 14 29 0 25 -5 30 -47 42 -54
15 -71 14 -96 -9 -9 -8 -20 -12 -23 -9 -4 3 9 15 27 26 38 24 95 27 121 7z
m-1363 -29 c0 -21 -1 -21 -9 -2 -12 28 -12 37 0 30 6 -3 10 -16 9 -28z m570
-1 c-3 -3 -11 5 -18 17 -13 21 -12 21 5 5 10 -10 16 -20 13 -22z m37 7 c-2
-16 -5 -34 -5 -40 -1 -7 -5 -13 -10 -13 -6 0 -6 12 -1 31 5 18 7 36 4 40 -3 5
0 9 6 9 6 0 9 -12 6 -27z m32 -4 c-3 -8 -7 -3 -11 10 -4 17 -3 21 5 13 5 -5 8
-16 6 -23z m-821 -1 c-3 -8 -6 -5 -6 6 -1 11 2 17 5 13 3 -3 4 -12 1 -19z
m-648 -15 c-5 -14 -8 -32 -5 -40 3 -7 1 -13 -5 -13 -16 0 -22 30 -11 56 16 34
34 32 21 -3z m166 1 c24 -24 25 -28 11 -42 -12 -13 -20 -13 -41 -4 -14 6 -25
17 -25 23 0 8 7 6 19 -5 16 -14 20 -15 30 -2 8 10 9 16 1 21 -5 3 -10 2 -10
-4 0 -5 -13 -3 -30 5 -22 12 -34 13 -50 4 l-21 -11 23 -18 22 -18 -22 -7 c-12
-4 -20 -12 -17 -17 3 -5 -1 -6 -10 -2 -13 5 -14 7 -3 14 10 7 9 9 -3 9 -25 0
-45 28 -31 42 9 9 12 8 12 -5 0 -16 37 -43 47 -34 2 3 -5 8 -16 12 -49 15 -2
52 81 64 4 1 19 -11 33 -25z m1341 9 c-4 -9 -1 -20 6 -25 9 -5 10 -8 1 -8 -6
0 -15 5 -18 10 -7 12 0 40 11 40 3 0 3 -8 0 -17z m672 -4 c29 -11 28 -33 -3
-47 -29 -13 -31 -10 -10 12 14 13 13 16 -5 26 -17 9 -27 8 -45 -4 -31 -20 -36
-20 -28 2 6 15 5 15 -10 3 -16 -13 -16 -15 -1 -32 16 -18 16 -19 0 -19 -27 0
-30 29 -6 55 23 25 48 25 108 4z m82 -29 c0 -16 -7 -30 -15 -34 -13 -4 -13 -2
-5 14 7 12 7 21 0 25 -5 3 -10 15 -10 27 0 17 2 18 15 8 8 -7 15 -25 15 -40z
m-2310 25 c20 -24 6 -28 -15 -5 -10 11 -13 20 -8 20 6 0 16 -7 23 -15z m920 5
c0 -5 -2 -10 -4 -10 -3 0 -8 5 -11 10 -3 6 -1 10 4 10 6 0 11 -4 11 -10z m711
-3 c-1 -4 -1 -14 -1 -22 0 -8 -3 -15 -7 -15 -5 0 -8 11 -8 25 0 14 4 24 8 22
5 -1 8 -6 8 -10z m-946 -27 c16 -16 24 -30 19 -30 -6 0 -23 14 -39 30 -16 17
-24 30 -19 30 6 0 23 -13 39 -30z m75 10 c6 -11 7 -20 2 -20 -6 0 -12 9 -15
20 -3 11 -3 20 -1 20 2 0 8 -9 14 -20z m913 -10 c-10 -11 -18 -20 -19 -20 -1
0 0 9 3 20 3 11 12 20 19 20 11 0 10 -5 -3 -20z m-1029 -16 c15 -14 26 -27 24
-30 -3 -2 -20 9 -38 26 -39 36 -27 40 14 4z m1068 -10 c-3 -18 -7 -22 -13 -13
-4 7 -3 19 3 26 15 18 16 17 10 -13z m458 16 c0 -5 -5 -10 -11 -10 -5 0 -7 5
-4 10 3 6 8 10 11 10 2 0 4 -4 4 -10z m-1920 -25 c-7 -8 -16 -15 -21 -15 -5 0
-1 8 9 18 20 22 31 19 12 -3z m1866 -12 c-6 -6 -36 9 -36 18 0 5 9 4 20 -3 10
-7 18 -14 16 -15z m144 3 c0 -2 -7 -7 -16 -10 -8 -3 -12 -2 -9 4 6 10 25 14
25 6z m-2210 -15 c0 -6 -4 -12 -8 -15 -5 -3 -9 1 -9 9 0 8 4 15 9 15 4 0 8 -4
8 -9z m1572 -17 c80 -28 174 -120 154 -152 -3 -6 -3 -18 0 -27 5 -12 18 -15
58 -14 65 4 149 -17 172 -42 9 -10 14 -19 10 -19 -4 0 0 -7 8 -16 12 -12 13
-20 6 -35 -6 -11 -8 -25 -4 -31 5 -8 2 -9 -9 -5 -10 3 -17 3 -17 -2 0 -4 -6
-8 -14 -8 -9 0 -12 7 -8 16 3 9 1 13 -3 8 -5 -4 -17 5 -27 20 l-19 28 3 -30
c4 -42 -27 -47 -35 -5 -7 30 -37 43 -37 15 0 -11 -8 -13 -32 -8 -18 3 -37 10
-42 14 -6 5 -21 9 -35 9 -23 0 -23 -1 -7 -19 15 -17 15 -19 1 -25 -9 -3 -29
-6 -44 -6 -35 0 -65 -31 -57 -58 5 -14 13 -18 27 -15 13 4 28 -3 42 -18 24
-25 27 -40 27 -108 0 -37 5 -48 31 -72 18 -16 42 -32 53 -35 12 -4 26 -14 32
-22 7 -10 26 -15 53 -14 39 2 48 -3 101 -54 32 -30 64 -69 70 -85 12 -27 10
-32 -11 -55 -22 -23 -24 -35 -26 -122 -2 -118 -7 -168 -22 -206 -10 -24 -15
-27 -39 -22 -27 5 -27 5 3 -8 l30 -14 -27 -13 c-15 -6 -25 -16 -22 -21 3 -5
12 -4 20 3 12 10 14 8 10 -12 -2 -17 -9 -23 -23 -22 -13 2 -24 -7 -33 -25 -12
-27 -12 -27 -21 -4 -9 24 -24 29 -34 11 -4 -6 -13 -8 -20 -5 -8 3 -19 -2 -26
-10 -11 -13 -9 -14 14 -9 36 9 51 -2 31 -22 -13 -14 -17 -14 -25 -2 -6 10 -9
10 -9 2 0 -7 -7 -13 -15 -13 -8 0 -14 -3 -14 -7 4 -25 -3 -43 -16 -43 -13 0
-19 -16 -16 -45 0 -6 -17 -10 -40 -10 -38 0 -40 1 -35 25 l5 25 -12 -25 c-15
-31 -47 -64 -54 -56 -4 3 2 14 11 25 11 12 14 21 7 26 -6 3 -11 1 -11 -4 0 -6
-5 -11 -11 -11 -6 0 -9 6 -6 14 3 8 1 17 -6 19 -9 3 -9 8 1 18 16 18 15 89 -3
113 -9 11 -12 29 -9 43 5 16 2 23 -6 21 -22 -5 -52 91 -40 126 13 36 13 59 1
51 -5 -3 -12 -1 -16 5 -3 5 1 10 10 10 9 0 13 5 10 11 -4 6 2 13 14 16 12 3
21 9 21 14 0 5 9 9 19 9 11 0 26 8 33 18 7 11 23 24 36 31 16 9 22 19 19 37
-2 14 -7 29 -13 32 -5 4 -9 13 -10 20 -3 36 -5 42 -13 42 -5 0 -12 -8 -14 -17
-3 -13 -5 -11 -6 6 -1 17 -5 22 -17 17 -14 -5 -15 -4 -4 9 10 12 8 16 -11 24
-20 7 -25 5 -32 -13 -5 -13 -10 -17 -15 -9 -4 6 -20 13 -35 15 -15 2 -49 21
-76 41 -26 20 -53 37 -60 37 -6 0 -11 5 -11 10 0 6 -12 10 -27 10 -22 0 -25 2
-13 10 12 8 11 10 -6 10 -25 0 -67 29 -44 31 8 0 4 5 -10 9 -23 7 -23 8 -3 9
16 1 20 6 16 20 -4 17 1 20 38 23 44 3 44 3 46 43 1 22 7 41 13 43 5 2 10 8
10 12 0 5 -23 6 -51 3 -45 -5 -51 -4 -56 16 -3 11 -9 21 -14 21 -4 0 -11 16
-15 35 -4 21 -13 37 -25 40 -23 8 -24 15 -2 53 15 26 15 35 4 73 -7 24 -15 50
-17 57 -2 8 -18 19 -34 25 -17 7 -28 17 -26 24 3 7 -1 10 -8 7 -8 -3 -17 0
-21 7 -6 8 1 10 26 7 27 -4 39 0 57 19 12 13 22 30 22 37 0 75 217 118 352 70z
m-1052 -144 c0 -5 -4 -10 -10 -10 -5 0 -10 5 -10 10 0 6 5 10 10 10 6 0 10 -4
10 -10z m704 -486 c-1 -14 -5 -28 -8 -31 -9 -9 -19 25 -12 42 9 25 23 17 20
-11z m-94 2 c0 -3 -4 -8 -10 -11 -5 -3 -10 -1 -10 4 0 6 5 11 10 11 6 0 10 -2
10 -4z m450 -200 c0 -3 -4 -8 -10 -11 -5 -3 -10 -1 -10 4 0 6 5 11 10 11 6 0
10 -2 10 -4z m360 -542 c0 -8 -4 -12 -10 -9 -5 3 -10 10 -10 16 0 5 5 9 10 9
6 0 10 -7 10 -16z m-110 -34 c0 -5 -2 -10 -4 -10 -3 0 -8 5 -11 10 -3 6 -1 10
4 10 6 0 11 -4 11 -10z m-30 -9 c0 -6 -4 -13 -10 -16 -5 -3 -10 1 -10 9 0 9 5
16 10 16 6 0 10 -4 10 -9z m65 -41 c3 -5 1 -10 -4 -10 -6 0 -11 5 -11 10 0 6
2 10 4 10 3 0 8 -4 11 -10z m-68 -27 c-9 -9 22 -43 40 -43 7 0 13 -4 13 -10 0
-15 -16 -12 -34 5 -8 8 -24 15 -35 15 -12 0 -21 2 -21 5 0 10 25 34 34 35 5 0
6 -3 3 -7z m43 -13 c0 -5 -4 -10 -10 -10 -5 0 -10 5 -10 10 0 6 5 10 10 10 6
0 10 -4 10 -10z m-1250 -54 c51 -22 80 -60 80 -103 0 -26 -10 -44 -45 -82
l-44 -47 21 -22 c12 -12 40 -56 62 -99 24 -45 47 -78 56 -78 8 0 23 17 34 38
20 41 32 45 17 5 -13 -36 -79 -90 -104 -86 -15 2 -35 27 -67 85 -65 118 -70
121 -70 38 0 -37 -2 -66 -5 -63 -8 8 -7 265 1 326 4 32 3 52 -3 52 -6 0 -13
-55 -18 -127 -8 -145 -20 -232 -34 -246 -7 -7 -16 -5 -27 3 -13 12 -15 26 -10
76 5 53 3 63 -14 79 l-20 18 21 24 c18 18 23 38 27 103 l5 80 -41 0 c-33 0
-51 -8 -99 -47 l-58 -46 39 41 c42 45 141 102 176 102 12 0 31 5 42 11 15 8
19 8 14 0 -4 -6 -2 -11 3 -11 6 0 12 8 12 18 1 13 3 12 6 -4 2 -12 19 -27 43
-38z m1143 29 c4 -8 2 -17 -4 -21 -6 -4 -6 -11 2 -20 10 -12 9 -17 -1 -27 -10
-9 -11 -9 -6 1 4 7 2 20 -6 29 -11 14 -11 17 1 21 10 3 7 9 -10 18 -23 13 -23
13 -3 14 12 0 24 -7 27 -15z m157 -25 c10 -19 10 -20 -9 -8 -11 6 -17 16 -15
20 8 12 12 10 24 -12z m-30 -16 c0 -12 -14 -34 -22 -34 -6 0 -8 7 -4 15 3 9 0
15 -10 15 -8 0 -12 -4 -9 -10 3 -5 1 -10 -4 -10 -12 0 -15 13 -5 23 6 6 54 6
54 1z m44 -26 c-3 -5 -10 -6 -15 -3 -5 4 -9 3 -9 -2 0 -12 -99 -55 -113 -49
-7 2 -2 5 11 5 13 1 21 5 17 10 -3 6 11 13 31 17 19 3 38 12 41 20 2 7 13 12
23 11 10 -1 16 -5 14 -9z m-935 -123 c20 -38 26 -65 26 -110 0 -54 -5 -67 -49
-137 -26 -43 -52 -78 -57 -78 -14 0 -67 101 -74 141 -4 21 -2 62 5 92 8 42 20
63 57 100 26 26 51 46 56 44 6 -2 22 -25 36 -52z m170 29 l11 -26 31 27 c37
30 49 29 67 -9 l14 -27 35 27 c35 26 36 27 50 8 23 -32 26 -64 14 -143 -15
-103 -14 -131 4 -131 8 0 15 -3 15 -6 0 -9 -54 -84 -61 -84 -4 0 -12 13 -19
30 -10 24 -10 50 0 130 10 76 10 106 2 125 -27 60 -51 2 -58 -140 -3 -72 -8
-103 -20 -115 -14 -13 -17 -13 -30 4 -17 24 -18 55 -2 160 10 70 9 85 -5 111
l-16 30 -16 -40 c-11 -24 -19 -80 -23 -142 -4 -89 -8 -105 -27 -123 l-23 -22
-7 32 c-4 18 -4 65 0 104 10 107 8 177 -4 189 -8 8 -5 17 11 34 28 30 42 29
57 -3z m566 5 c4 -11 4 -76 0 -143 -6 -100 -5 -124 7 -134 12 -10 17 -7 26 12
15 34 34 183 27 215 -4 21 0 32 19 50 23 22 26 22 32 7 4 -10 4 -76 0 -148 -6
-105 -4 -128 6 -122 7 4 1 -8 -14 -27 -14 -19 -28 -46 -31 -60 -4 -21 -4 -21
-6 6 -1 23 -3 27 -11 15 -8 -12 -10 -10 -10 9 l0 25 -28 -27 c-70 -67 -98 -3
-72 161 11 65 6 107 -11 97 -16 -11 -10 14 14 50 25 40 43 44 52 14z m60 11
c-3 -5 -16 -10 -28 -9 -20 1 -20 2 3 9 14 4 26 8 28 9 2 1 0 -3 -3 -9z m-197
-12 c25 -25 13 -63 -36 -111 l-49 -48 9 -57 c5 -31 11 -59 14 -62 3 -3 14 5
24 18 10 12 21 22 24 22 10 0 -10 -34 -48 -79 l-35 -42 -17 33 c-10 18 -19 66
-22 106 -6 93 14 149 71 197 47 39 48 40 65 23z m-1628 -196 c0 -4 -10 -9 -22
-9 -18 -2 -20 0 -8 7 18 12 30 13 30 2z m36 -31 c-12 -19 -22 -12 -24 16 -2
25 -1 26 14 11 9 -9 13 -21 10 -27z m2303 10 c-7 -2 -6 -7 2 -12 8 -5 9 -9 3
-9 -6 0 -18 8 -25 17 -10 11 -10 14 -1 9 8 -5 12 -1 12 11 0 15 2 16 10 3 6
-10 6 -16 -1 -19z m-2269 -6 c0 -8 -4 -15 -10 -15 -5 0 -7 7 -4 15 4 8 8 15
10 15 2 0 4 -7 4 -15z m305 -19 c-40 -17 -57 -39 -66 -84 l-7 -37 -1 35 c0 19
3 40 7 45 14 21 65 55 81 55 9 -1 2 -7 -14 -14z m1633 -6 c42 -26 59 -62 44
-92 -10 -21 -11 -20 -11 13 -1 40 -22 76 -39 65 -6 -4 -8 -14 -5 -23 4 -11 3
-14 -5 -9 -7 4 -12 3 -12 -3 0 -5 5 -13 10 -16 15 -9 12 -23 -10 -45 -28 -28
-44 -25 -24 5 9 14 14 36 12 50 -3 13 -2 23 1 20 4 -2 12 5 19 15 10 16 7 20
-16 28 -15 6 -20 11 -12 11 8 1 30 -8 48 -19z m387 2 c-3 -3 -11 0 -18 7 -9
10 -8 11 6 5 10 -3 15 -9 12 -12z m-2081 0 c2 -4 -4 -13 -14 -20 -14 -8 -21
-8 -26 -1 -4 6 0 15 7 20 18 11 26 11 33 1z m1776 -14 c0 -6 -7 -7 -16 -4 -12
4 -10 -2 6 -27 l22 -32 -31 35 c-37 43 -38 49 -6 42 14 -2 25 -9 25 -14z
m-2065 1 c17 -8 16 -9 -8 -5 -15 2 -30 -1 -33 -5 -3 -5 -10 -9 -16 -9 -7 0 -6
6 2 15 14 17 26 18 55 4z m1935 7 c0 -2 -7 -7 -16 -10 -8 -3 -12 -2 -9 4 6 10
25 14 25 6z m420 -6 c13 -8 12 -11 -5 -24 -11 -8 -22 -12 -25 -9 -3 3 1 8 8
10 24 9 12 23 -15 17 -22 -4 -25 -3 -13 5 18 13 31 13 50 1z m-1885 -27 c13
-16 24 -39 23 -53 l-1 -25 -4 25 c-3 14 -16 37 -31 53 -14 15 -22 27 -18 27 4
0 18 -12 31 -27z m-115 13 c0 -2 -8 -10 -17 -17 -16 -13 -17 -12 -4 4 13 16
21 21 21 13z m-370 -16 c0 -5 -2 -10 -4 -10 -3 0 -8 5 -11 10 -3 6 -1 10 4 10
6 0 11 -4 11 -10z m405 -14 c0 -15 -4 -21 -9 -16 -5 5 -6 16 -3 24 9 22 12 20
12 -8z m1532 -13 c-3 -10 -5 -4 -5 12 0 17 2 24 5 18 2 -7 2 -21 0 -30z
m-1551 -33 c4 -12 7 -12 13 -1 6 9 11 10 15 2 4 -6 2 -11 -4 -11 -6 0 -8 -5
-5 -10 4 -7 -3 -9 -22 -5 -25 6 -26 5 -9 -6 11 -7 41 -13 67 -13 26 -1 45 -4
42 -8 -7 -13 -88 -9 -108 5 -22 17 -30 74 -13 95 11 13 13 12 16 -9 2 -13 5
-31 8 -39z m67 39 c4 -16 3 -18 -8 -9 -10 8 -14 7 -18 -2 -3 -7 -4 -3 -4 10 2
28 23 29 30 1z m1463 6 c-1 -8 -6 -18 -11 -22 -4 -4 -5 -2 -1 5 4 6 2 12 -3
12 -6 0 -11 -5 -11 -12 0 -6 -3 -9 -6 -5 -10 10 4 37 20 37 8 0 13 -7 12 -15z
m414 5 c0 -5 -2 -10 -4 -10 -3 0 -8 5 -11 10 -3 6 -1 10 4 10 6 0 11 -4 11
-10z m-1746 -24 c-5 -12 -34 -25 -56 -26 -5 0 -8 9 -8 19 0 14 8 21 28 23 34
5 42 1 36 -16z m-107 -53 c-11 -15 -43 -17 -51 -4 -3 5 5 16 19 25 14 9 26 24
26 34 1 9 5 4 8 -13 4 -16 3 -36 -2 -42z m1393 49 c0 -9 9 -23 20 -30 12 -7
18 -17 14 -23 -4 -6 -14 -4 -27 8 -21 18 -21 18 -7 -1 14 -18 13 -19 -3 -13
-11 4 -16 3 -12 -3 9 -15 66 -12 98 4 15 8 27 10 27 5 0 -14 -46 -29 -91 -29
-37 0 -46 8 -39 35 2 6 2 22 1 38 -1 15 3 27 9 27 5 0 10 -8 10 -18z m150 -21
c0 -33 -5 -42 -38 -65 -24 -17 -52 -26 -78 -27 -39 -1 -39 -1 -9 -10 23 -6 39
-4 67 9 22 11 34 14 31 7 -8 -23 -81 -37 -120 -24 -26 8 -32 14 -22 20 11 7
11 9 -2 9 -9 0 -19 7 -23 15 -6 17 9 21 19 5 3 -5 28 -10 54 -10 60 0 98 27
107 75 8 46 14 44 14 -4z m-1946 21 c6 -10 -51 -8 -61 1 -3 4 8 7 25 7 17 0
33 -4 36 -8z m1978 -64 c-48 -48 -54 -48 -17 2 14 19 25 43 25 54 0 19 1 19
17 3 17 -16 15 -19 -25 -59z m277 68 c-9 -9 -69 -14 -63 -5 3 5 19 9 36 9 17
0 29 -2 27 -4z m-2046 -37 c10 -18 15 -34 12 -37 -9 -9 -45 30 -45 50 0 27 13
22 33 -13z m87 -46 c32 -16 112 -17 128 -1 9 9 12 9 12 0 0 -16 -43 -32 -87
-32 -60 0 -136 74 -106 104 4 3 12 -8 17 -26 6 -18 22 -38 36 -45z m1565 57
c-3 -5 -12 -10 -18 -10 -7 0 -6 4 3 10 19 12 23 12 15 0z m-1847 -17 c11 -10
23 -31 27 -48 6 -29 6 -29 -9 -9 -8 11 -16 27 -18 35 -2 8 -12 19 -23 26 -11
7 -15 12 -9 13 7 0 21 -8 32 -17z m2167 -9 c-16 -15 -24 -23 -16 -19 9 5 8 -1
-4 -18 -17 -27 -14 -73 8 -109 16 -24 4 -31 -27 -16 -21 9 -26 16 -21 32 4 12
11 44 17 71 10 48 37 85 62 85 6 -1 -2 -12 -19 -26z m-1943 -68 c12 -17 15
-25 8 -18 -8 6 -26 12 -41 12 -32 0 -44 14 -52 58 l-7 33 36 -27 c19 -15 44
-41 56 -58z m1793 47 c-7 -47 -20 -61 -49 -56 -13 3 -27 -1 -31 -7 -5 -9 -2
-10 13 -6 11 4 23 3 25 -2 5 -7 -23 -8 -58 -3 -8 1 91 107 103 110 2 1 1 -16
-3 -36z m225 27 c-20 -13 -33 -13 -25 0 3 6 14 10 23 10 15 0 15 -2 2 -10z
m-2250 -39 c29 -59 14 -122 -35 -141 -19 -9 -19 -9 2 -9 24 -1 53 33 53 61 0
23 20 34 31 17 14 -23 10 -49 -8 -56 -10 -3 -33 -20 -50 -36 -31 -29 -34 -30
-51 -14 -10 9 -25 17 -33 18 -8 0 -6 4 6 9 17 7 15 9 -12 9 -18 1 -33 5 -33 9
0 4 16 6 35 4 42 -5 87 20 79 43 -4 8 -2 15 4 15 20 0 21 32 2 71 -11 21 -18
39 -15 39 2 0 14 -18 25 -39z m2278 11 c2 -8 -3 -10 -15 -6 -15 6 -16 4 -5 -7
18 -19 15 -31 -7 -24 -14 4 -21 0 -24 -12 -3 -11 -5 -8 -6 10 -1 20 3 26 12
21 6 -4 9 -4 5 1 -10 10 11 37 25 32 6 -2 13 -9 15 -15z m-65 -12 c-3 -10 -12
-25 -21 -32 -13 -11 -12 -8 2 20 19 36 27 41 19 12z m-1972 -12 c11 -21 11
-22 -4 -9 -10 7 -17 17 -17 22 0 15 9 10 21 -13z m45 -25 c-7 -7 -26 7 -26 19
0 6 6 6 15 -2 9 -7 13 -15 11 -17z m794 25 c0 -2 -6 -22 -13 -46 l-13 -43 -25
20 -24 21 28 25 c23 21 47 32 47 23z m-1163 -56 c-11 -5 -37 18 -37 34 0 9 8
5 23 -9 12 -12 18 -24 14 -25z m503 33 c0 -7 -81 -27 -87 -21 -3 3 10 9 28 15
39 11 59 13 59 6z m153 -45 c32 -10 42 -9 62 4 34 23 31 10 -5 -20 -57 -48
-59 -148 -6 -288 30 -78 32 -115 12 -155 -21 -39 -82 -91 -117 -98 -24 -4 -29
-10 -28 -32 1 -14 -9 -50 -23 -79 l-25 -54 -12 30 c-14 34 -11 67 6 67 6 0 15
4 20 9 5 5 2 6 -6 1 -9 -5 -12 -3 -9 6 3 8 12 14 20 13 7 -1 15 7 15 18 1 13
-12 25 -43 39 -85 41 -110 111 -56 161 34 32 81 62 87 56 3 -3 -6 -10 -19 -17
-39 -21 -51 -53 -32 -88 8 -17 26 -37 40 -46 l25 -17 5 53 c4 28 8 75 10 102
2 28 2 2 0 -57 l-3 -107 35 -7 c81 -15 90 22 39 172 -35 103 -54 132 -56 86 0
-11 -3 -12 -6 -4 -2 6 -10 12 -16 12 -7 0 -19 5 -27 10 -13 8 -11 13 12 32 22
19 27 34 33 90 7 67 6 68 -21 78 -62 24 -119 -31 -97 -92 11 -30 11 -31 -2
-14 -8 11 -15 30 -15 43 0 33 56 91 101 104 21 7 39 17 39 22 0 6 6 4 13 -5 6
-9 29 -21 50 -28z m-349 21 c3 -5 -5 -8 -19 -8 -14 0 -22 3 -19 8 3 5 11 9 19
9 8 0 16 -4 19 -9z m991 -22 c-10 -15 -86 -69 -99 -69 -6 0 9 18 33 40 40 36
82 55 66 29z m-905 -41 c0 -18 -17 -7 -29 19 -13 28 -13 28 8 9 12 -11 21 -23
21 -28z m677 27 c3 -9 18 -22 33 -30 l27 -14 -14 -53 c-21 -74 -20 -184 1
-233 17 -39 17 -40 -5 -57 -30 -25 -35 -23 -54 24 -22 55 -22 145 0 246 19 89
16 112 -15 112 -12 0 -18 5 -15 10 9 15 35 12 42 -5z m905 -15 c-10 -18 -20
-26 -26 -20 -6 6 -3 17 9 30 27 30 37 24 17 -10z m48 27 c0 -2 -10 -12 -22
-23 l-23 -19 19 23 c18 21 26 27 26 19z m-1780 -27 c0 -11 -7 -20 -15 -20 -13
0 -14 4 -5 20 6 11 13 20 15 20 3 0 5 -9 5 -20z m111 -1 c9 -17 8 -20 -2 -14
-9 6 -10 3 -4 -11 9 -21 10 -34 6 -84 -2 -29 -4 -31 -10 -15 -5 11 -6 36 -4
56 6 41 -15 69 -50 68 -21 0 -22 0 -2 -9 24 -9 50 -38 43 -46 -3 -3 -21 9 -39
25 -28 26 -30 31 -16 37 10 3 26 4 37 1 11 -3 20 -1 20 4 0 15 9 10 21 -12z
m1769 -5 c0 -8 -4 -14 -9 -14 -11 0 -22 26 -14 34 9 9 23 -3 23 -20z m-512
-55 c46 -5 60 -5 80 4 13 6 30 22 37 36 13 25 14 25 15 4 0 -27 -42 -58 -103
-74 -51 -14 -57 -27 -57 -130 0 -73 14 -113 37 -105 17 7 16 6 -27 -46 -22
-27 -36 -22 -55 19 -15 31 -17 54 -12 139 6 89 5 103 -10 108 -14 6 -13 9 6
29 11 13 21 28 21 34 0 6 12 20 28 31 l27 21 3 -35 c2 -19 6 -34 10 -35z m442
64 c-40 -8 -50 -22 -50 -77 0 -37 -3 -47 -10 -36 -28 44 9 121 58 119 l27 -2
-25 -4z m-1899 -31 c-8 -2 -27 -18 -44 -33 -36 -34 -55 -38 -33 -7 16 23 77
58 86 50 3 -3 -1 -7 -9 -10z m1897 4 c-8 -6 -20 -20 -26 -31 -11 -20 -11 -20
-12 1 0 24 15 41 37 41 13 0 14 -2 1 -11z m-1752 -33 c3 -10 10 -26 15 -36 12
-22 -1 -42 -32 -50 -17 -5 -18 -3 -8 9 9 11 9 20 0 41 -6 14 -9 28 -7 31 3 3
10 -6 15 -19 9 -23 10 -23 10 -3 1 29 -23 37 -43 15 -20 -22 -21 -48 -1 -54
11 -4 10 -4 -2 -3 -24 2 -28 32 -9 61 19 29 54 33 62 8z m114 -38 c4 -56 0
-65 -27 -76 -16 -6 -35 -16 -43 -24 -8 -7 -28 -16 -45 -20 l-30 -6 33 17 c24
12 30 19 20 26 -9 5 -5 7 12 6 19 -2 29 5 46 37 25 45 29 71 13 81 -7 4 -9 0
-5 -13 3 -11 -1 -28 -9 -39 -15 -18 -16 -17 -9 16 3 19 9 39 11 43 9 15 31
-17 33 -48z m1532 33 c-7 -7 -12 -8 -12 -2 0 14 12 26 19 19 2 -3 -1 -11 -7
-17z m25 -32 c-6 -61 8 -82 73 -110 24 -11 29 -15 15 -16 -11 0 -45 15 -75 33
-46 28 -56 38 -58 65 -4 36 4 40 25 15 13 -17 14 -16 8 5 -4 12 -3 31 0 42 12
37 18 20 12 -34z m133 38 c8 -8 13 -28 13 -44 0 -18 4 -27 11 -23 6 4 5 -1 -3
-10 -15 -18 -26 -23 -16 -7 3 6 -4 11 -17 11 -17 1 -18 3 -5 6 21 6 23 46 1
63 -12 11 -18 11 -30 -2 -12 -12 -13 -19 -3 -41 14 -32 6 -45 -16 -27 -15 12
-14 56 2 83 8 13 50 7 63 -9z m-1242 -6 c15 -15 15 -81 1 -146 -17 -83 17
-161 42 -95 6 15 13 72 16 125 5 78 10 101 25 114 10 10 21 14 24 11 10 -9 10
-82 1 -178 -6 -71 -5 -89 7 -102 13 -13 12 -17 -9 -37 -27 -26 -55 -21 -55 10
0 27 -8 25 -43 -7 l-29 -28 -20 25 c-18 22 -20 33 -13 100 12 117 12 145 -2
143 -18 -4 -16 6 10 44 25 37 28 38 45 21z m1011 -9 c-5 -10 -13 -56 -18 -102
-12 -121 0 -178 28 -129 10 15 10 15 11 -4 0 -27 -66 -92 -80 -78 -6 6 -14 30
-18 55 l-8 44 -28 -53 c-15 -29 -32 -52 -39 -49 -44 14 -56 173 -19 244 30 58
84 93 139 91 37 -1 41 -3 32 -19z m297 -55 c2 -30 -1 -46 -13 -56 -14 -11 -16
-11 -8 2 9 14 8 79 -1 115 -5 19 -5 19 7 1 7 -11 13 -39 15 -62z m-910 14
c-19 -156 -20 -201 -3 -213 15 -11 13 -15 -12 -39 -16 -16 -34 -25 -40 -22
-18 12 -22 69 -11 161 10 77 9 91 -3 99 -12 8 -8 15 20 38 50 40 57 36 49 -24z
m205 24 c8 -20 1 -32 -42 -77 -48 -51 -51 -56 -44 -92 3 -21 10 -45 16 -53 8
-13 12 -11 29 10 11 14 20 21 20 16 0 -13 -72 -106 -83 -106 -17 0 -38 73 -38
139 -1 79 13 113 66 160 41 36 64 37 76 3z m-1280 -45 c-17 -17 -24 18 -9 45
l13 23 3 -29 c2 -16 -1 -33 -7 -39z m1784 -61 c40 -25 61 -31 104 -30 32 0 46
-3 35 -7 -40 -16 -87 -9 -139 21 -59 34 -78 65 -67 112 7 32 7 31 12 -16 5
-47 8 -51 55 -80z m109 109 c-4 -8 -10 -12 -15 -9 -11 6 -2 24 11 24 5 0 7 -7
4 -15z m-1648 -79 c-36 -56 -152 -95 -196 -66 -11 7 -3 8 27 4 35 -5 50 -1 97
26 58 33 75 53 77 92 2 19 3 18 6 -5 3 -16 -2 -39 -11 -51z m-201 14 c-7 -12
56 -5 85 9 19 9 17 5 -10 -19 -19 -16 -40 -30 -46 -30 -17 0 -62 39 -46 40 7
0 10 5 6 12 -4 7 -3 8 5 4 6 -4 9 -11 6 -16z m1838 -10 c4 0 5 4 2 10 -4 6 3
6 21 0 19 -8 30 -7 40 1 12 9 13 9 9 -3 -3 -9 -18 -21 -32 -27 -21 -9 -31 -8
-56 6 -17 10 -32 24 -35 32 -4 11 1 10 19 -2 13 -10 27 -17 32 -17z m-1875
-26 c-4 -3 -12 5 -18 18 -12 22 -12 22 6 6 10 -10 15 -20 12 -24z m48 -22 c-4
-3 -14 2 -24 12 -16 18 -16 18 6 6 13 -6 21 -14 18 -18z m1894 24 c0 -2 -8
-10 -17 -17 -16 -13 -17 -12 -4 4 13 16 21 21 21 13z m-1850 -107 c0 -5 -11
-8 -25 -7 -14 1 -25 6 -25 11 0 4 -5 5 -12 1 -6 -4 -8 -3 -5 3 7 12 67 5 67
-8z m1850 -4 c0 -8 -13 -24 -30 -36 -16 -12 -27 -26 -25 -30 10 -15 -62 -31
-85 -19 -13 7 -20 7 -20 1 0 -12 32 -21 70 -20 14 0 37 -3 52 -6 37 -10 78 17
78 50 0 33 18 32 26 -1 8 -32 -15 -57 -71 -78 -22 -8 -32 -15 -23 -15 9 -1 29
4 44 9 32 13 64 4 64 -17 0 -12 -3 -13 -13 -4 -10 7 -29 8 -61 2 -53 -10 -72
-23 -60 -42 5 -9 10 -5 16 12 8 21 11 22 21 8 13 -18 36 -14 54 8 10 13 13 12
23 -7 9 -16 8 -25 -2 -38 -9 -11 -10 -14 0 -8 6 4 12 5 12 2 0 -2 3 -11 6 -20
3 -9 1 -16 -6 -16 -6 0 -9 4 -6 9 4 5 -8 13 -26 17 -31 6 -32 7 -10 15 12 5
22 15 22 23 0 13 -3 13 -27 0 -25 -12 -29 -12 -40 3 -11 14 -13 14 -13 2 0 -8
10 -26 21 -38 20 -21 20 -23 3 -19 -11 2 -19 8 -19 15 0 20 -15 27 -16 7 0
-12 -2 -14 -6 -5 -5 11 -7 11 -15 0 -8 -11 -9 -10 -4 3 3 10 1 20 -5 24 -11 7
-1 46 15 56 6 5 0 8 -14 9 -47 4 -50 4 -49 13 0 5 -10 14 -23 20 -19 10 -22
19 -20 46 5 46 8 48 33 17 19 -25 68 -40 54 -17 -3 5 -11 7 -19 4 -7 -3 -13 2
-13 10 0 8 4 13 9 10 4 -3 15 2 24 10 18 19 38 21 28 4 -4 -7 2 -4 15 6 12 11
19 26 16 33 -2 8 0 11 5 8 6 -3 10 -13 10 -20z m-1775 6 c3 -5 1 -12 -5 -16
-5 -3 -10 1 -10 9 0 18 6 21 15 7z m1645 0 c0 -6 -4 -13 -10 -16 -5 -3 -10 1
-10 9 0 9 5 16 10 16 6 0 10 -4 10 -9z m105 0 c3 -5 1 -12 -5 -16 -5 -3 -10
-2 -10 3 0 6 -10 8 -22 4 -14 -3 -19 -2 -14 6 9 14 42 16 51 3z m65 -27 c0
-27 -18 -23 -22 6 -4 24 -2 27 9 19 7 -7 13 -17 13 -25z m-1987 6 c-3 -12 -8
-19 -11 -16 -5 6 5 36 12 36 2 0 2 -9 -1 -20z m1774 -31 c-13 -28 -14 -30 -12
-9 3 33 18 67 22 53 2 -6 -3 -26 -10 -44z m-1692 27 c11 -4 29 -12 40 -17 19
-9 19 -9 -1 -4 -12 3 -26 -1 -33 -9 -11 -13 -8 -16 15 -22 22 -6 32 -2 51 20
20 24 24 25 30 10 9 -24 -33 -57 -61 -48 -52 16 -89 40 -92 60 -3 22 10 24 51
10z m125 -23 c0 -32 -5 -28 -14 10 -4 19 -3 26 4 22 5 -3 10 -18 10 -32z
m-226 -17 c-3 -8 7 -23 23 -36 21 -17 35 -20 58 -14 16 4 45 6 64 5 20 -1 42
6 53 16 17 15 18 15 13 1 -4 -9 -20 -21 -36 -27 -16 -5 -29 -13 -29 -16 0 -3
5 -3 12 1 6 4 8 3 4 -4 -4 -6 -33 -10 -71 -9 -55 2 -68 6 -94 31 -25 24 -28
32 -19 52 11 24 31 24 22 0z m-117 -8 c32 -36 44 -65 41 -102 -1 -19 -5 -33
-8 -31 -3 2 -25 -7 -49 -21 -24 -13 -45 -24 -48 -24 -7 0 26 45 35 46 40 8 52
18 46 38 -4 11 -7 28 -8 36 -1 8 -3 17 -6 20 -3 3 -13 17 -23 33 -21 33 -9 36
20 5z m2093 10 c0 -8 -33 -28 -46 -28 -4 0 1 7 12 15 18 13 18 14 -6 9 -19 -4
-21 -3 -11 4 17 12 51 12 51 0z m186 -26 c-17 -16 -18 -16 -5 5 7 12 15 20 18
17 3 -2 -3 -12 -13 -22z m-2105 -11 c15 -6 18 -10 8 -10 -9 -1 -25 7 -36 17
-10 9 -14 14 -8 10 6 -4 22 -12 36 -17z m1920 9 c-13 -11 -31 -20 -40 -20 -9
0 0 8 19 19 46 24 50 24 21 1z m-2104 -75 c-3 -7 -15 -19 -26 -25 -19 -10 -19
-9 2 23 21 32 35 33 24 2z m196 8 c47 -7 60 -40 28 -74 -12 -13 -21 -18 -21
-12 0 6 6 16 14 23 15 12 11 40 -6 40 -5 0 -7 -4 -4 -9 7 -11 -22 -71 -35 -71
-6 0 -6 7 0 19 6 10 7 22 3 26 -4 3 0 5 8 3 9 -2 15 5 16 20 1 18 -4 22 -25
21 -14 0 -36 2 -48 6 -15 5 -23 3 -23 -5 0 -7 6 -10 13 -7 8 3 14 -4 15 -16 1
-17 -1 -19 -8 -7 -8 13 -10 12 -10 -2 0 -11 11 -20 28 -25 l27 -7 -33 -8 c-28
-8 -32 -11 -21 -24 10 -12 10 -17 -1 -27 -10 -10 -12 -9 -7 6 4 11 1 17 -9 17
-13 0 -13 3 -1 20 15 21 11 74 -4 64 -12 -7 -11 3 2 28 8 16 17 18 37 13 15
-4 44 -9 65 -12z m2157 12 c0 -7 -30 -13 -34 -7 -3 4 4 9 15 9 10 1 19 0 19
-2z m-2270 -81 c0 -14 -4 -22 -10 -19 -5 3 -10 17 -10 31 0 14 4 22 10 19 6
-3 10 -17 10 -31z m2114 14 c-1 -13 -3 -27 -3 -32 -1 -6 -6 -5 -12 1 -11 11
-4 53 10 53 4 0 7 -10 5 -22z m-275 -17 c-7 -10 -10 -25 -6 -33 6 -17 75 -29
84 -15 3 5 9 3 14 -4 7 -11 9 -10 9 4 0 9 4 17 10 17 5 0 7 -8 3 -17 -5 -15
-3 -14 11 2 l17 20 -3 -20 c-2 -11 -11 -20 -19 -20 -9 0 -25 -7 -35 -15 -10
-8 -15 -10 -11 -4 10 17 -17 24 -50 13 -27 -9 -27 -9 5 -4 20 3 31 1 27 -5
-18 -29 -125 6 -125 41 0 20 15 26 25 9 3 -5 11 -10 17 -10 6 0 6 6 -2 15 -14
17 -14 17 15 33 27 15 27 15 14 -7z m-1879 5 c0 -3 -4 -8 -10 -11 -5 -3 -10
-1 -10 4 0 6 5 11 10 11 6 0 10 -2 10 -4z m328 -8 c17 -17 -23 -68 -53 -68
-13 0 -27 5 -30 10 -3 6 4 10 17 10 30 0 45 11 45 33 0 11 -6 16 -14 13 -8 -3
-11 -1 -8 4 8 13 28 13 43 -2z m1888 -3 c10 -8 15 -14 9 -14 -5 0 -19 6 -29
14 -11 8 -15 15 -10 15 6 0 19 -7 30 -15z m-2258 -9 c-20 -14 -25 -42 -6 -30
7 4 8 3 4 -4 -9 -14 -42 -16 -50 -3 -3 5 9 18 27 30 36 23 52 28 25 7z m292
-6 c28 -22 24 -25 -14 -10 -14 5 -26 14 -26 20 0 15 12 12 40 -10z m1713 0
c-4 -5 -21 -12 -38 -15 l-30 -7 30 20 c28 18 57 19 38 2z m-1593 -21 c0 -5 -4
-9 -8 -9 -5 0 -9 7 -9 15 0 8 4 12 9 9 4 -3 8 -9 8 -15z m-181 -24 c5 3 12 1
15 -4 4 -5 0 -8 -6 -7 -23 3 -38 17 -37 34 0 12 3 10 10 -6 5 -13 13 -21 18
-17z m1532 25 c13 -8 19 -7 19 0 0 6 5 8 11 4 8 -4 7 -9 -2 -15 -11 -6 -11
-12 -1 -31 11 -19 10 -30 -1 -57 l-14 -34 -27 58 c-14 32 -26 61 -26 65 0 5
-6 11 -12 13 -7 3 -3 6 10 6 13 1 32 -4 43 -9z m-1581 -12 c0 -4 -4 -9 -10
-13 -5 -3 -7 -12 -3 -20 6 -18 -1 -19 -28 -5 -26 14 -24 30 4 31 21 0 21 1 2
9 -17 8 -16 8 8 7 15 -1 27 -5 27 -9z m90 -8 c25 -25 64 -26 89 -1 16 16 20
17 25 5 3 -9 1 -12 -4 -9 -6 3 -10 1 -10 -5 0 -17 -42 -28 -71 -18 -15 5 -35
18 -45 29 -23 25 -10 25 16 -1z m1860 16 c0 -8 -51 -13 -56 -5 -3 5 9 9 25 9
17 0 31 -2 31 -4z m-2117 -26 c-3 -11 -9 -20 -13 -20 -5 0 -15 -3 -24 -6 -11
-4 -16 -1 -16 11 0 9 4 14 9 11 4 -3 17 1 27 9 10 8 20 15 21 15 0 0 -1 -9 -4
-20z m591 8 l26 -11 -23 -12 c-12 -6 -37 -17 -55 -23 -31 -11 -32 -10 -21 11
26 50 33 54 73 35z m1100 -4 c19 -19 39 -54 31 -54 -4 0 -28 10 -55 21 -31 13
-56 18 -67 14 -10 -5 -21 -7 -25 -7 -5 1 -7 -1 -6 -6 0 -4 -3 -18 -8 -30 -9
-22 -11 -23 -24 -7 -13 15 -12 20 9 36 13 11 35 22 50 25 14 3 35 9 46 14 28
12 32 12 49 -6z m456 12 c0 -3 -4 -8 -10 -11 -5 -3 -10 -1 -10 4 0 6 5 11 10
11 6 0 10 -2 10 -4z m-1706 -33 c-3 -16 2 -47 10 -70 13 -37 13 -43 0 -54 -24
-20 -38 4 -44 77 -6 71 -5 74 21 74 15 0 17 -6 13 -27z m1384 -38 c-3 -44 -10
-71 -21 -82 -26 -26 -38 -6 -25 42 6 22 10 55 10 73 0 26 3 32 20 32 19 0 20
-5 16 -65z m224 32 c-12 -13 -22 -28 -22 -35 0 -17 -34 -32 -75 -32 -22 0 -34
-4 -30 -10 3 -5 1 -10 -5 -10 -7 0 -10 6 -7 14 3 8 -4 27 -15 42 l-21 26 24
-7 c30 -10 86 -7 110 6 11 5 19 6 19 2 0 -4 7 3 16 15 9 13 19 21 22 18 3 -4
-4 -16 -16 -29z m68 17 c0 -6 -12 -16 -26 -23 -23 -10 -26 -10 -20 4 3 9 6 20
6 25 0 5 9 8 20 7 11 -1 20 -6 20 -13z m158 3 c7 0 11 -5 9 -11 -6 -18 -24
-17 -48 4 l-24 21 25 -7 c14 -4 31 -7 38 -7z m-1281 -17 c-3 -8 -7 -22 -9 -30
-3 -8 -3 -12 -1 -7 7 11 33 9 33 -3 0 -5 -12 -13 -27 -16 -16 -4 -34 -11 -40
-17 -9 -6 -13 -6 -13 2 0 6 -10 11 -22 11 -13 0 -29 4 -37 9 -11 7 -9 11 9 21
16 9 19 15 11 23 -19 19 -13 22 45 22 44 0 54 -3 51 -15z m300 -47 c-2 -16 -4
-5 -4 22 0 28 2 40 4 28 2 -13 2 -35 0 -50z m-145 45 c6 -18 -3 -68 -13 -68
-5 0 -9 18 -9 40 0 37 13 55 22 28z m118 -34 c0 -29 -24 -41 -45 -24 -19 16
-19 25 0 44 21 20 45 9 45 -20z m-1250 9 c0 -3 -6 -3 -13 0 -8 3 -14 -4 -15
-16 -1 -17 1 -18 8 -7 5 8 11 12 14 10 2 -3 -4 -16 -15 -29 -17 -21 -25 -16
-20 13 1 4 -3 14 -9 21 -8 10 -7 14 7 17 19 5 43 -1 43 -9z m627 5 c6 -7 10
-20 10 -29 0 -13 -9 -15 -44 -11 -41 4 -44 3 -58 -29 -14 -34 -14 -34 -15 -6
0 15 9 36 21 48 19 19 26 20 79 1 30 -10 -2 13 -33 25 l-32 11 31 1 c17 1 36
-5 41 -11z m426 -7 c3 13 9 21 12 17 3 -3 0 -18 -7 -33 -11 -25 -13 -25 -25
-9 -7 10 -13 25 -13 33 1 11 5 8 14 -8 l13 -23 6 23z m34 -28 c-3 -10 -5 -2
-5 17 0 19 2 27 5 18 2 -10 2 -26 0 -35z m85 22 c-7 -37 -22 -41 -22 -6 0 20
5 31 14 31 9 0 12 -8 8 -25z m173 -5 c0 -20 -5 -25 -24 -25 -32 0 -38 21 -9
31 22 7 22 7 3 15 -18 8 -17 8 5 6 19 -1 25 -8 25 -27z m275 21 c-8 -5 -26
-12 -40 -16 -22 -7 -23 -6 -11 9 7 9 25 16 40 16 19 -1 22 -3 11 -9z m612 4
c9 -4 13 -17 10 -39 l-4 -33 -23 21 c-21 19 -22 22 -7 28 10 4 12 7 4 7 -7 1
-10 6 -7 11 7 12 9 12 27 5z m-2049 -42 c11 -15 -1 -17 -22 -4 -9 6 -11 16 -6
27 6 16 8 16 13 4 2 -8 9 -21 15 -27z m349 14 c-28 -29 -28 -70 -1 -108 11
-16 16 -29 10 -29 -12 0 -30 30 -48 80 -17 48 -17 49 20 65 43 19 44 19 19 -8z
m1148 8 c17 -9 30 -21 30 -27 0 -28 -25 -89 -43 -105 -20 -18 -20 -18 -4 12
13 26 13 33 1 58 -9 16 -20 25 -26 21 -7 -5 -8 -2 -3 6 6 10 -2 12 -39 8 -51
-6 -51 3 0 20 38 12 61 1 80 -42 11 -27 13 -28 14 -8 0 13 -11 34 -25 47 -28
29 -25 31 15 10z m356 -20 c-3 -8 -10 -15 -15 -15 -7 0 -6 10 1 26 12 26 25
16 14 -11z m-526 -34 c-6 -12 -16 -18 -22 -15 -7 5 -5 11 6 20 11 8 15 18 11
26 -6 10 -5 10 4 2 10 -9 10 -17 1 -33z m-1125 -39 c-9 -9 -24 39 -18 55 6 14
9 11 14 -17 4 -19 6 -36 4 -38z m1445 43 c0 -14 -9 -33 -19 -42 -11 -9 -18
-20 -15 -25 3 -4 -1 -5 -9 -2 -12 4 -10 10 9 29 13 13 24 33 24 45 0 11 2 20
5 20 3 0 5 -11 5 -25z m-1620 1 c0 -3 -4 -8 -10 -11 -5 -3 -10 -1 -10 4 0 6 5
11 10 11 6 0 10 -2 10 -4z m50 0 c0 -11 -19 -15 -25 -6 -3 5 1 10 9 10 9 0 16
-2 16 -4z m360 -11 c0 -8 -4 -15 -9 -15 -5 0 -11 7 -15 15 -3 9 0 15 9 15 8 0
15 -7 15 -15z m974 0 c-4 -8 -10 -12 -15 -9 -11 6 -2 24 11 24 5 0 7 -7 4 -15z
m376 11 c0 -11 -19 -15 -25 -6 -3 5 1 10 9 10 9 0 16 -2 16 -4z m30 -6 c0 -5
-2 -10 -4 -10 -3 0 -8 5 -11 10 -3 6 -1 10 4 10 6 0 11 -4 11 -10z m88 -64 l4
-29 -36 39 c-45 49 -46 62 -3 37 22 -13 33 -28 35 -47z m-2135 37 c-7 -2 -13
-9 -13 -14 0 -6 5 -7 10 -4 16 10 12 -5 -7 -23 -16 -16 -16 -16 -10 1 4 10 2
17 -5 17 -7 0 -6 5 2 15 7 8 18 15 24 14 7 0 6 -2 -1 -6z m625 -34 c-7 -4 -4
-9 8 -12 13 -3 14 -5 3 -6 -8 0 -24 6 -35 14 -12 9 -14 14 -6 15 7 0 10 5 7
11 -4 6 2 5 14 -2 13 -9 16 -16 9 -20z m62 20 c0 -9 -31 -21 -37 -15 -3 3 -3
9 1 14 6 10 36 12 36 1z m943 -9 c4 0 5 6 1 13 -5 8 -2 8 9 -2 13 -10 20 -11
31 -2 10 9 15 8 19 -3 7 -18 -12 -36 -37 -35 -18 1 -17 2 4 9 22 7 22 8 5 10
-11 1 -25 2 -31 1 -6 -1 -17 7 -25 16 -11 15 -11 16 1 6 8 -7 18 -13 23 -13z
m-1293 -9 c14 -26 13 -38 -2 -23 -15 15 -31 16 -22 0 4 -7 3 -8 -5 -4 -6 4 -9
11 -6 16 3 5 -3 13 -12 19 -16 9 -14 10 9 11 17 0 31 -7 38 -19z m1447 -3 c-3
-8 -6 -5 -6 6 -1 11 2 17 5 13 3 -3 4 -12 1 -19z m214 6 c-19 -8 -41 -20 -50
-27 -12 -10 -13 -9 -6 3 18 33 29 40 59 40 l31 -1 -34 -15z m-1633 -25 c-3 -8
-7 -3 -11 10 -4 17 -3 21 5 13 5 -5 8 -16 6 -23z m149 9 c-3 -8 -6 -5 -6 6 -1
11 2 17 5 13 3 -3 4 -12 1 -19z m-227 8 c0 -2 -11 -6 -25 -8 -14 -3 -25 -1
-25 3 0 5 11 9 25 9 14 0 25 -2 25 -4z"/>
<path d="M2111 3382 c-8 -15 -7 -23 4 -32 23 -19 46 -5 36 22 -11 29 -27 34
-40 10z m30 -30 c-7 -2 -18 1 -23 6 -8 8 -4 9 13 5 13 -4 18 -8 10 -11z"/>
<path d="M298 3348 c5 -5 16 -8 23 -6 8 3 3 7 -10 11 -17 4 -21 3 -13 -5z"/>
<path d="M1408 2383 c7 -3 16 -2 19 1 4 3 -2 6 -13 5 -11 0 -14 -3 -6 -6z"/>
<path d="M1735 2180 c3 -5 11 -10 16 -10 6 0 7 5 4 10 -3 6 -11 10 -16 10 -6
0 -7 -4 -4 -10z"/>
<path d="M1785 2150 c3 -5 8 -10 11 -10 2 0 4 5 4 10 0 6 -5 10 -11 10 -5 0
-7 -4 -4 -10z"/>
<path d="M1820 1761 c0 -16 -5 -42 -11 -58 -7 -15 -13 -57 -14 -93 -3 -57 -1
-62 11 -45 8 10 14 25 14 33 0 7 5 10 12 6 7 -5 8 -3 3 6 -4 7 -3 15 2 19 12
8 4 161 -8 161 -5 0 -9 -13 -9 -29z"/>
<path d="M2008 1753 c7 -3 16 -2 19 1 4 3 -2 6 -13 5 -11 0 -14 -3 -6 -6z"/>
<path d="M1954 1709 c-3 -5 9 -9 25 -9 17 0 31 2 31 4 0 8 -51 13 -56 5z"/>
<path d="M1985 1680 c3 -5 8 -10 11 -10 2 0 4 5 4 10 0 6 -5 10 -11 10 -5 0
-7 -4 -4 -10z"/>
<path d="M645 1327 c-4 -40 -5 -83 -3 -96 l3 -23 35 24 c28 19 36 31 38 62 4
40 -15 78 -47 96 -18 9 -20 5 -26 -63z"/>
<path d="M986 1254 c-11 -29 -6 -114 9 -151 35 -83 55 -76 55 20 0 58 -19 115
-45 137 -9 8 -14 6 -19 -6z"/>
<path d="M1889 1028 c-12 -23 -12 -23 10 -4 23 21 26 26 11 26 -5 0 -15 -10
-21 -22z"/>
<path d="M1606 1254 c-9 -24 -7 -64 4 -64 15 0 32 39 25 60 -8 24 -21 26 -29
4z"/>
<path d="M515 950 c-3 -6 1 -7 9 -4 18 7 21 14 7 14 -6 0 -13 -4 -16 -10z"/>
<path d="M655 719 c-5 -48 -4 -74 4 -82 8 -8 11 0 11 31 0 24 6 58 14 77 13
29 12 34 -1 39 -8 3 -16 6 -18 6 -2 0 -6 -32 -10 -71z"/>
<path d="M1801 669 c-12 -35 -13 -120 -2 -159 l7 -25 14 25 c16 29 49 177 42
185 -3 3 -15 5 -28 5 -16 0 -25 -9 -33 -31z"/>
<path d="M1448 684 c-13 -22 -19 -74 -9 -74 18 0 35 45 23 65 -5 10 -12 14
-14 9z"/>
<path d="M292 474 c-11 -12 -10 -15 3 -20 22 -9 40 10 23 23 -9 8 -17 7 -26
-3z"/>
<path d="M1960 235 c0 -8 4 -15 10 -15 5 0 7 7 4 15 -4 8 -8 15 -10 15 -2 0
-4 -7 -4 -15z"/>
<path d="M1010 150 c0 -5 5 -10 10 -10 6 0 10 5 10 10 0 6 -4 10 -10 10 -5 0
-10 -4 -10 -10z"/>
<path d="M1342 154 c4 -21 22 -23 26 -1 2 10 -3 17 -13 17 -10 0 -15 -6 -13
-16z"/>
<path d="M1440 140 c0 -5 5 -10 10 -10 6 0 10 5 10 10 0 6 -4 10 -10 10 -5 0
-10 -4 -10 -10z"/>
<path d="M2207 3443 c-4 -3 -7 -16 -6 -27 0 -19 1 -19 10 3 10 24 8 36 -4 24z"/>
<path d="M449 3308 c8 -11 25 -17 45 -17 l31 2 -30 4 c-16 3 -37 10 -45 16
-13 10 -13 10 -1 -5z"/>
<path d="M1995 3311 c-6 -5 -21 -11 -35 -14 l-25 -4 26 -2 c15 0 32 6 39 14
14 16 10 21 -5 6z"/>
<path d="M0 3076 c0 -7 9 -16 20 -19 11 -3 20 -11 20 -17 0 -9 -4 -9 -17 1
-15 12 -16 12 -10 -3 4 -11 2 -18 -5 -18 -7 0 -3 -6 7 -14 11 -8 24 -12 28 -9
5 3 3 9 -4 14 -13 8 -6 13 13 10 10 -1 -2 31 -20 52 -18 21 -32 22 -32 3z"/>
<path d="M2432 3083 c-7 -3 -19 -19 -28 -36 l-15 -32 19 24 c12 15 25 22 35
18 11 -4 15 0 14 14 -1 20 -3 21 -25 12z"/>
<path d="M2422 3030 c-5 -14 -7 -29 -4 -35 3 -5 7 -4 10 3 2 7 11 12 20 12 11
0 13 3 6 8 -6 4 -13 14 -16 22 -4 11 -8 8 -16 -10z"/>
<path d="M2416 992 c-3 -5 6 -12 20 -15 15 -3 23 0 21 7 -5 14 -33 20 -41 8z"/>
<path d="M70 932 c14 -11 23 -30 24 -49 1 -23 4 -29 13 -21 20 17 -20 88 -50
88 -5 0 1 -8 13 -18z"/>
<path d="M2388 803 c6 -2 18 -2 25 0 6 3 1 5 -13 5 -14 0 -19 -2 -12 -5z"/>
<path d="M1 716 c12 -10 60 -16 54 -6 -3 5 -18 10 -32 10 -15 0 -24 -2 -22 -4z"/>
<path d="M2000 39 c-6 -11 -10 -25 -8 -30 2 -5 8 4 15 21 13 34 9 40 -7 9z"/>
</g>
</svg>
