<?xml version="1.0" standalone="no"?>
<!DOCTYPE svg PUBLIC "-//W3C//DTD SVG 20010904//EN"
 "http://www.w3.org/TR/2001/REC-SVG-20010904/DTD/svg10.dtd">
<svg version="1.0" xmlns="http://www.w3.org/2000/svg"
 width="40.000000pt" height="40.000000pt" viewBox="0 0 40.000000 40.000000"
 preserveAspectRatio="xMidYMid meet">

<g transform="translate(0.000000,40.000000) scale(0.100000,-0.100000)"
fill="#000000" stroke="none">
<path d="M163 393 c-35 -7 -69 -56 -77 -109 -3 -26 -19 -68 -35 -93 -46 -75
-57 -110 -39 -127 12 -12 20 -13 43 -4 35 13 79 5 68 -13 -4 -8 -1 -8 10 1 9
8 21 11 26 7 6 -3 9 0 6 7 -2 7 4 24 15 37 l20 23 20 -23 c10 -13 19 -26 20
-29 0 -17 -20 -29 -55 -32 l-40 -3 28 -19 c25 -17 29 -17 52 -2 15 10 22 22
19 31 -7 18 7 20 25 2 11 -9 12 -9 7 0 -10 18 34 26 69 13 23 -9 31 -8 43 4
18 17 7 52 -39 127 -16 25 -32 67 -36 94 -11 81 -72 125 -150 108z m7 -198
c19 -23 0 -38 -33 -26 -18 7 -25 15 -21 26 8 19 38 19 54 0z m114 0 c4 -11 -3
-19 -21 -26 -33 -12 -52 3 -33 26 16 19 46 19 54 0z"/>
<path d="M187 84 c-14 -15 -6 -34 14 -34 14 0 19 5 17 17 -3 18 -20 27 -31 17z"/>
</g>
</svg>
